<svg width="1429" height="308" viewBox="0 0 1429 308" fill="none" xmlns="http://www.w3.org/2000/svg">
<path d="M118.124 307.002H10C4.47715 307.002 0 302.525 0 297.002V10C0 4.47716 4.47715 0 10 0H116.925C148.504 0 175.787 6.14604 198.772 18.4381C221.857 30.6302 239.645 48.2189 252.137 71.2041C264.729 94.0893 271.025 121.522 271.025 153.501C271.025 185.48 264.779 212.963 252.287 235.948C239.795 258.833 222.107 276.422 199.221 288.714C176.336 300.906 149.304 307.002 118.124 307.002ZM95.4198 220.229C90.4534 226.818 95.1542 236.248 103.406 236.248H115.126C130.316 236.248 143.258 233.799 153.951 228.902C164.744 224.005 172.938 215.561 178.535 203.569C184.231 191.576 187.079 174.887 187.079 153.501C187.079 132.115 184.181 115.426 178.385 103.433C172.689 91.441 164.294 82.9964 153.201 78.0996C142.208 73.2028 128.717 70.7543 112.727 70.7543H93.3462C87.8234 70.7543 83.3462 75.2315 83.3462 80.7543V143.501C83.3462 149.024 87.8234 153.501 93.3462 153.501H125.653C133.905 153.501 138.606 162.931 133.639 169.52L95.4198 220.229Z" fill="url(#paint0_angular_3_4)"/>
<path d="M412.215 76.011C420.195 76.011 427.615 77.761 434.475 81.261C441.335 84.621 447.285 89.241 452.325 95.121C457.505 101.001 461.565 107.861 464.505 115.701C467.445 123.541 468.915 131.941 468.915 140.901C468.915 149.861 467.445 158.331 464.505 166.311C461.565 174.151 457.505 181.011 452.325 186.891C447.285 192.771 441.265 197.461 434.265 200.961C427.405 204.321 420.055 206.001 412.215 206.001H354.045V76.011H412.215ZM408.015 183.321C412.915 183.321 417.465 182.201 421.665 179.961C425.865 177.721 429.505 174.641 432.585 170.721C435.665 166.801 438.045 162.321 439.725 157.281C441.545 152.101 442.455 146.641 442.455 140.901C442.455 135.161 441.545 129.771 439.725 124.731C438.045 119.551 435.665 115.071 432.585 111.291C429.505 107.371 425.865 104.291 421.665 102.051C417.465 99.671 412.915 98.481 408.015 98.481H380.505V183.321H408.015ZM479.766 158.751C479.766 152.031 481.096 145.731 483.756 139.851C486.556 133.971 490.266 128.861 494.886 124.521C499.506 120.041 504.966 116.541 511.266 114.021C517.566 111.501 524.286 110.241 531.426 110.241C538.566 110.241 545.216 111.501 551.376 114.021C557.676 116.541 563.136 120.041 567.756 124.521C572.376 128.861 576.016 133.971 578.676 139.851C581.476 145.731 582.876 152.031 582.876 158.751C582.876 165.471 581.476 171.771 578.676 177.651C576.016 183.531 572.376 188.711 567.756 193.191C563.136 197.531 557.676 200.961 551.376 203.481C545.216 206.001 538.566 207.261 531.426 207.261C524.286 207.261 517.566 206.001 511.266 203.481C504.966 200.961 499.506 197.531 494.886 193.191C490.266 188.711 486.556 183.531 483.756 177.651C481.096 171.771 479.766 165.471 479.766 158.751ZM531.426 130.191C527.646 130.191 524.076 130.961 520.716 132.501C517.496 133.901 514.626 135.931 512.106 138.591C509.726 141.111 507.836 144.121 506.436 147.621C505.036 151.121 504.336 154.831 504.336 158.751C504.336 162.671 505.036 166.381 506.436 169.881C507.836 173.381 509.726 176.461 512.106 179.121C514.626 181.641 517.496 183.671 520.716 185.211C524.076 186.611 527.646 187.311 531.426 187.311C535.206 187.311 538.706 186.611 541.926 185.211C545.286 183.671 548.156 181.641 550.536 179.121C553.056 176.461 555.016 173.381 556.416 169.881C557.816 166.381 558.516 162.671 558.516 158.751C558.516 154.691 557.746 150.911 556.206 147.411C554.806 143.911 552.846 140.901 550.326 138.381C547.806 135.861 544.866 133.901 541.506 132.501C538.286 130.961 534.926 130.191 531.426 130.191ZM644.785 207.261C638.065 207.261 631.695 206.071 625.675 203.691C619.795 201.311 614.545 198.021 609.925 193.821C605.445 189.481 601.875 184.371 599.215 178.491C596.555 172.471 595.225 165.891 595.225 158.751C595.225 151.471 596.555 144.891 599.215 139.011C601.875 132.991 605.445 127.881 609.925 123.681C614.545 119.341 619.865 116.051 625.885 113.811C631.905 111.431 638.205 110.241 644.785 110.241C655.705 110.241 665.295 113.111 673.555 118.851C681.955 124.591 687.835 133.061 691.195 144.261L667.885 144.891C665.925 139.711 662.775 136.001 658.435 133.761C654.235 131.381 649.965 130.191 645.625 130.191C641.425 130.191 637.715 131.031 634.495 132.711C631.415 134.251 628.755 136.421 626.515 139.221C624.275 141.881 622.595 144.891 621.475 148.251C620.355 151.611 619.795 155.111 619.795 158.751C619.795 162.671 620.425 166.381 621.685 169.881C622.945 173.241 624.695 176.251 626.935 178.911C629.175 181.431 631.835 183.461 634.915 185.001C638.135 186.541 641.705 187.311 645.625 187.311C650.945 187.311 655.495 185.981 659.275 183.321C663.195 180.521 666.065 176.741 667.885 171.981L691.405 172.821C687.765 184.021 681.815 192.561 673.555 198.441C665.295 204.321 655.705 207.261 644.785 207.261ZM730.24 166.731C730.24 168.831 730.8 170.861 731.92 172.821C733.18 174.781 734.93 176.531 737.17 178.071C739.41 179.611 742.07 180.871 745.15 181.851C748.37 182.831 751.94 183.321 755.86 183.321C759.08 183.321 762.16 182.971 765.1 182.271C768.18 181.431 770.91 180.311 773.29 178.911C775.67 177.511 777.56 175.761 778.96 173.661C780.5 171.561 781.27 169.251 781.27 166.731C781.27 162.111 779.38 158.611 775.6 156.231C771.96 153.851 767.27 151.961 761.53 150.561C755.93 149.021 749.84 147.621 743.26 146.361C736.82 145.101 730.73 143.211 724.99 140.691C719.39 138.171 714.7 134.741 710.92 130.401C707.28 126.061 705.46 120.041 705.46 112.341C705.46 107.021 706.79 102.191 709.45 97.851C712.11 93.371 715.75 89.521 720.37 86.301C724.99 83.081 730.31 80.561 736.33 78.741C742.49 76.921 749 76.011 755.86 76.011C762.86 76.011 769.37 76.991 775.39 78.951C781.55 80.911 786.87 83.571 791.35 86.931C795.97 90.291 799.61 94.281 802.27 98.901C804.93 103.381 806.26 108.281 806.26 113.601H779.8C779.8 109.541 777.56 106.041 773.08 103.101C768.74 100.021 763 98.481 755.86 98.481C752.78 98.481 749.77 98.831 746.83 99.531C744.03 100.231 741.51 101.211 739.27 102.471C737.03 103.731 735.21 105.271 733.81 107.091C732.55 108.911 731.92 111.011 731.92 113.391C731.92 117.871 733.81 121.231 737.59 123.471C741.37 125.711 746.06 127.601 751.66 129.141C757.26 130.541 763.35 131.871 769.93 133.131C776.51 134.391 782.6 136.351 788.2 139.011C793.8 141.531 798.49 145.031 802.27 149.511C806.05 153.991 807.94 160.151 807.94 167.991C807.94 174.011 806.33 179.401 803.11 184.161C800.03 188.781 795.97 192.701 790.93 195.921C786.03 199.141 780.5 201.661 774.34 203.481C768.18 205.161 762.02 206.001 755.86 206.001C748.72 206.001 742 205.021 735.7 203.061C729.4 200.961 723.87 198.161 719.11 194.661C714.35 191.161 710.57 187.031 707.77 182.271C705.11 177.511 703.78 172.331 703.78 166.731H730.24ZM819.986 129.981V111.501H832.166V85.041H856.736V111.501H882.776V129.981H856.736V167.571C856.736 172.751 858.276 176.741 861.356 179.541C864.436 182.201 868.216 183.601 872.696 183.741C874.236 183.741 875.566 183.671 876.686 183.531C877.806 183.251 878.436 183.041 878.576 182.901L884.246 204.111C883.966 204.251 882.496 204.601 879.836 205.161C877.176 205.721 874.376 206.001 871.436 206.001C859.256 206.001 849.666 202.781 842.666 196.341C835.806 189.761 832.306 180.311 832.166 167.991V129.981H819.986ZM894.229 158.751C894.229 152.031 895.559 145.731 898.219 139.851C901.019 133.971 904.729 128.861 909.349 124.521C913.969 120.041 919.429 116.541 925.729 114.021C932.029 111.501 938.749 110.241 945.889 110.241C953.029 110.241 959.679 111.501 965.839 114.021C972.139 116.541 977.599 120.041 982.219 124.521C986.839 128.861 990.479 133.971 993.139 139.851C995.939 145.731 997.339 152.031 997.339 158.751C997.339 165.471 995.939 171.771 993.139 177.651C990.479 183.531 986.839 188.711 982.219 193.191C977.599 197.531 972.139 200.961 965.839 203.481C959.679 206.001 953.029 207.261 945.889 207.261C938.749 207.261 932.029 206.001 925.729 203.481C919.429 200.961 913.969 197.531 909.349 193.191C904.729 188.711 901.019 183.531 898.219 177.651C895.559 171.771 894.229 165.471 894.229 158.751ZM945.889 130.191C942.109 130.191 938.539 130.961 935.179 132.501C931.959 133.901 929.089 135.931 926.569 138.591C924.189 141.111 922.299 144.121 920.899 147.621C919.499 151.121 918.799 154.831 918.799 158.751C918.799 162.671 919.499 166.381 920.899 169.881C922.299 173.381 924.189 176.461 926.569 179.121C929.089 181.641 931.959 183.671 935.179 185.211C938.539 186.611 942.109 187.311 945.889 187.311C949.669 187.311 953.169 186.611 956.389 185.211C959.749 183.671 962.619 181.641 964.999 179.121C967.519 176.461 969.479 173.381 970.879 169.881C972.279 166.381 972.979 162.671 972.979 158.751C972.979 154.691 972.209 150.911 970.669 147.411C969.269 143.911 967.309 140.901 964.789 138.381C962.269 135.861 959.329 133.901 955.969 132.501C952.749 130.961 949.389 130.191 945.889 130.191ZM1014.8 111.501H1039.16V125.991C1040.84 123.471 1042.8 121.371 1045.04 119.691C1047.42 117.871 1049.94 116.401 1052.6 115.281C1055.26 114.021 1057.99 113.181 1060.79 112.761C1063.59 112.201 1066.32 111.921 1068.98 111.921C1074.3 111.921 1078.5 112.761 1081.58 114.441L1069.82 136.701C1067.72 135.721 1065.27 135.231 1062.47 135.231C1059.53 135.231 1056.66 135.861 1053.86 137.121C1051.06 138.381 1048.54 140.061 1046.3 142.161C1044.2 144.261 1042.45 146.781 1041.05 149.721C1039.79 152.521 1039.16 155.531 1039.16 158.751V206.001H1014.8V111.501ZM1085.37 158.751C1085.37 151.891 1086.56 145.521 1088.94 139.641C1091.32 133.621 1094.54 128.441 1098.6 124.101C1102.8 119.761 1107.7 116.401 1113.3 114.021C1119.04 111.501 1125.27 110.241 1131.99 110.241C1138.29 110.241 1144.1 111.641 1149.42 114.441C1154.74 117.241 1159.15 121.021 1162.65 125.781V111.501H1187.22V206.001H1162.65V191.721C1159.01 196.481 1154.53 200.261 1149.21 203.061C1144.03 205.861 1138.29 207.261 1131.99 207.261C1125.27 207.261 1119.04 206.071 1113.3 203.691C1107.7 201.171 1102.8 197.741 1098.6 193.401C1094.4 189.061 1091.11 183.951 1088.73 178.071C1086.49 172.051 1085.37 165.611 1085.37 158.751ZM1109.94 158.751C1109.94 162.951 1110.64 166.871 1112.04 170.511C1113.44 174.151 1115.33 177.371 1117.71 180.171C1120.09 182.831 1122.82 184.931 1125.9 186.471C1129.12 188.011 1132.55 188.781 1136.19 188.781C1139.13 188.781 1142.14 188.221 1145.22 187.101C1148.3 185.841 1151.1 184.021 1153.62 181.641C1156.28 179.121 1158.45 175.971 1160.13 172.191C1161.81 168.411 1162.65 163.931 1162.65 158.751C1162.65 154.551 1161.95 150.701 1160.55 147.201C1159.29 143.561 1157.47 140.411 1155.09 137.751C1152.85 134.951 1150.05 132.781 1146.69 131.241C1143.47 129.701 1139.97 128.931 1136.19 128.931C1132.55 128.931 1129.12 129.701 1125.9 131.241C1122.82 132.781 1120.09 134.951 1117.71 137.751C1115.33 140.411 1113.44 143.561 1112.04 147.201C1110.64 150.841 1109.94 154.691 1109.94 158.751ZM1204.11 158.751C1204.11 152.171 1205.37 146.011 1207.89 140.271C1210.55 134.391 1214.05 129.281 1218.39 124.941C1222.87 120.601 1228.12 117.171 1234.14 114.651C1240.16 112.131 1246.53 110.871 1253.25 110.871C1259.13 110.871 1264.45 112.131 1269.21 114.651C1274.11 117.171 1278.17 120.461 1281.39 124.521V111.501H1305.33V200.331C1305.33 207.471 1304 213.911 1301.34 219.651C1298.68 225.391 1295.04 230.221 1290.42 234.141C1285.94 238.201 1280.62 241.281 1274.46 243.381C1268.44 245.621 1262.07 246.741 1255.35 246.741C1248.49 246.741 1242.4 245.761 1237.08 243.801C1231.76 241.841 1227.14 239.321 1223.22 236.241C1219.3 233.301 1216.01 230.011 1213.35 226.371C1210.83 222.731 1208.94 219.231 1207.68 215.871L1233.51 214.191C1235.19 217.411 1237.85 219.931 1241.49 221.751C1245.27 223.711 1249.61 224.691 1254.51 224.691C1259.27 224.691 1263.33 223.991 1266.69 222.591C1270.19 221.191 1272.99 219.371 1275.09 217.131C1277.33 215.031 1278.94 212.581 1279.92 209.781C1280.9 207.121 1281.39 204.461 1281.39 201.801V192.981C1278.17 197.041 1274.11 200.331 1269.21 202.851C1264.45 205.371 1259.13 206.631 1253.25 206.631C1246.53 206.631 1240.16 205.371 1234.14 202.851C1228.12 200.331 1222.87 196.901 1218.39 192.561C1214.05 188.081 1210.55 182.971 1207.89 177.231C1205.37 171.351 1204.11 165.191 1204.11 158.751ZM1254.93 129.351C1251.43 129.351 1248.07 130.121 1244.85 131.661C1241.77 133.201 1239.04 135.301 1236.66 137.961C1234.28 140.621 1232.32 143.771 1230.78 147.411C1229.38 150.911 1228.68 154.691 1228.68 158.751C1228.68 162.531 1229.31 166.171 1230.57 169.671C1231.97 173.171 1233.79 176.321 1236.03 179.121C1238.41 181.781 1241.21 183.951 1244.43 185.631C1247.65 187.171 1251.15 187.941 1254.93 187.941C1258.57 187.941 1262 187.311 1265.22 186.051C1268.44 184.651 1271.24 182.691 1273.62 180.171C1276 177.651 1277.89 174.641 1279.29 171.141C1280.69 167.501 1281.39 163.371 1281.39 158.751C1281.39 154.411 1280.69 150.421 1279.29 146.781C1277.89 143.141 1276 140.061 1273.62 137.541C1271.24 134.881 1268.44 132.851 1265.22 131.451C1262 130.051 1258.57 129.351 1254.93 129.351ZM1321 158.751C1321 152.031 1322.33 145.731 1324.99 139.851C1327.79 133.971 1331.5 128.861 1336.12 124.521C1340.74 120.041 1346.13 116.541 1352.29 114.021C1358.59 111.501 1365.24 110.241 1372.24 110.241C1380.22 110.241 1387.5 111.711 1394.08 114.651C1400.66 117.451 1406.19 121.371 1410.67 126.411C1415.29 131.311 1418.58 137.051 1420.54 143.631C1422.64 150.071 1423.2 157.001 1422.22 164.421H1346.2C1346.62 167.501 1347.46 170.441 1348.72 173.241C1350.12 175.901 1351.87 178.281 1353.97 180.381C1356.21 182.481 1358.87 184.161 1361.95 185.421C1365.03 186.681 1368.46 187.311 1372.24 187.311C1377.14 187.311 1381.55 186.261 1385.47 184.161C1389.39 182.061 1392.33 179.191 1394.29 175.551L1419.28 176.391C1417.46 180.731 1415.08 184.791 1412.14 188.571C1409.2 192.351 1405.7 195.641 1401.64 198.441C1397.72 201.101 1393.31 203.271 1388.41 204.951C1383.51 206.491 1378.12 207.261 1372.24 207.261C1364.82 207.261 1357.96 206.001 1351.66 203.481C1345.5 200.961 1340.11 197.531 1335.49 193.191C1331.01 188.851 1327.44 183.741 1324.78 177.861C1322.26 171.841 1321 165.471 1321 158.751ZM1397.44 150.141C1396.18 143.421 1393.31 138.171 1388.83 134.391C1384.35 130.471 1378.82 128.511 1372.24 128.511C1365.38 128.511 1359.71 130.681 1355.23 135.021C1350.89 139.221 1348.23 144.261 1347.25 150.141H1397.44Z" fill="#161619"/>
<defs>
<radialGradient id="paint0_angular_3_4" cx="0" cy="0" r="1" gradientUnits="userSpaceOnUse" gradientTransform="translate(147.713 153.002) rotate(94.5296) scale(154.483 136.379)">
<stop stop-color="#23BDFF"/>
<stop offset="0.229167" stop-color="#7856FF"/>
<stop offset="0.421875" stop-color="#D356FF"/>
<stop offset="0.661458" stop-color="#7856FF"/>
<stop offset="0.833333" stop-color="#8C56FF"/>
<stop offset="0.953125" stop-color="#56AEFF"/>
</radialGradient>
</defs>
</svg>
